<svg width="57" height="30" viewBox="0 0 57 30" fill="none" xmlns="http://www.w3.org/2000/svg">
<path d="M9.49795 9.23078C10.1277 9.23078 10.7317 9.47391 11.177 9.90669C11.6223 10.3395 11.8724 10.9264 11.8724 11.5385V27.6923C11.8724 28.3043 11.6223 28.8913 11.177 29.3241C10.7317 29.7569 10.1277 30 9.49795 30C8.86819 30 8.26423 29.7569 7.81893 29.3241C7.37363 28.8913 7.12346 28.3043 7.12346 27.6923V11.5385C7.12346 10.9264 7.37363 10.3395 7.81893 9.90669C8.26423 9.47391 8.86819 9.23078 9.49795 9.23078ZM16.6214 11.5385C17.2512 11.5385 17.8551 11.7816 18.3004 12.2144C18.7457 12.6472 18.9959 13.2341 18.9959 13.8462V27.6923C18.9959 28.3043 18.7457 28.8913 18.3004 29.3241C17.8551 29.7569 17.2512 30 16.6214 30C15.9917 30 15.3877 29.7569 14.9424 29.3241C14.4971 28.8913 14.2469 28.3043 14.2469 27.6923V13.8462C14.2469 13.2341 14.4971 12.6472 14.9424 12.2144C15.3877 11.7816 15.9917 11.5385 16.6214 11.5385ZM23.7449 2.30771C24.3746 2.30771 24.9786 2.55084 25.4239 2.98362C25.8692 3.41639 26.1194 4.00336 26.1194 4.6154V27.6923C26.1194 28.3043 25.8692 28.8913 25.4239 29.3241C24.9786 29.7569 24.3746 30 23.7449 30C23.1151 30 22.5112 29.7569 22.0658 29.3241C21.6205 28.8913 21.3704 28.3043 21.3704 27.6923V4.6154C21.3704 4.00336 21.6205 3.41639 22.0658 2.98362C22.5112 2.55084 23.1151 2.30771 23.7449 2.30771ZM35.6173 1.91796e-05C39.3034 -0.000112315 42.8461 1.38825 45.501 3.8734C48.156 6.35855 49.7165 9.74704 49.8547 13.3269L49.8618 13.9269C51.9053 14.21 53.7673 15.2219 55.0852 16.7658C56.4032 18.3096 57.0829 20.2749 56.9919 22.279C56.901 24.2831 56.0459 26.1825 54.5932 27.6076C53.1404 29.0327 51.194 29.8814 49.1329 29.9885L48.677 30H40.3639C39.7587 29.9993 39.1766 29.7741 38.7365 29.3704C38.2964 28.9666 38.0316 28.4147 37.9961 27.8276C37.9607 27.2404 38.1572 26.6622 38.5457 26.2112C38.9341 25.7601 39.4851 25.4702 40.0861 25.4008L40.3663 25.3846H48.5511L48.8788 25.38C49.7338 25.3353 50.5435 24.9928 51.1598 24.4151C51.7761 23.8375 52.1577 23.0635 52.2347 22.2348C52.3117 21.406 52.0789 20.5781 51.5791 19.9025C51.0792 19.2269 50.3457 18.749 49.5128 18.5562L49.1922 18.4962L44.9894 17.9146L45.1152 13.7908L45.1057 13.3846C44.988 11.0986 44.0004 8.93658 42.3349 7.31828C40.6693 5.69998 38.4445 4.74081 36.0922 4.62694L35.6173 4.6154C34.9809 4.6154 34.3564 4.6754 33.7462 4.79309L33.2428 4.90617V27.6923C33.2427 28.2575 33.0292 28.8031 32.6427 29.2255C32.2563 29.6479 31.7237 29.9177 31.1461 29.9838L30.8683 30C30.2386 30 29.6346 29.7569 29.1893 29.3241C28.744 28.8913 28.4938 28.3043 28.4938 27.6923L28.4915 1.85309C30.6569 0.635286 33.1154 -0.00403683 35.6173 1.91796e-05ZM2.37449 13.8462C3.00424 13.8462 3.6082 14.0893 4.0535 14.5221C4.4988 14.9548 4.74897 15.5418 4.74897 16.1539V25.3846C4.74897 25.9967 4.4988 26.5836 4.0535 27.0164C3.6082 27.4492 3.00424 27.6923 2.37449 27.6923C1.74473 27.6923 1.14077 27.4492 0.695471 27.0164C0.250168 26.5836 0 25.9967 0 25.3846V16.1539C0 15.5418 0.250168 14.9548 0.695471 14.5221C1.14077 14.0893 1.74473 13.8462 2.37449 13.8462Z" fill="#B45EDC"/>
</svg>
